<mxfile host="app.diagrams.net" agent="Mozilla/5.0 (Windows NT 10.0; Win64; x64) AppleWebKit/537.36 (KHTML, like Gecko) Chrome/134.0.0.0 Safari/537.36" version="26.1.1">
  <diagram name="PÃ¡gina-1" id="jjnUUdmbV6-PDah67byf">
    <mxGraphModel grid="1" page="1" gridSize="10" guides="1" tooltips="1" connect="1" arrows="1" fold="1" pageScale="1" pageWidth="827" pageHeight="1169" math="0" shadow="0">
      <root>
        <mxCell id="0" />
        <mxCell id="1" parent="0" />
        <mxCell id="cEgsvEtOURBDwi0haWBK-3" value="" style="edgeStyle=orthogonalEdgeStyle;rounded=0;orthogonalLoop=1;jettySize=auto;html=1;" edge="1" parent="1" source="cEgsvEtOURBDwi0haWBK-1" target="cEgsvEtOURBDwi0haWBK-2">
          <mxGeometry relative="1" as="geometry" />
        </mxCell>
        <mxCell id="cEgsvEtOURBDwi0haWBK-1" value="&lt;font style=&quot;font-size: 18px;&quot;&gt;inicio&lt;/font&gt;" style="ellipse;whiteSpace=wrap;html=1;fillColor=#fff2cc;strokeColor=#d6b656;" vertex="1" parent="1">
          <mxGeometry x="340" y="30" width="120" height="80" as="geometry" />
        </mxCell>
        <mxCell id="cEgsvEtOURBDwi0haWBK-5" value="" style="edgeStyle=orthogonalEdgeStyle;rounded=0;orthogonalLoop=1;jettySize=auto;html=1;" edge="1" parent="1" source="cEgsvEtOURBDwi0haWBK-2" target="cEgsvEtOURBDwi0haWBK-4">
          <mxGeometry relative="1" as="geometry" />
        </mxCell>
        <mxCell id="cEgsvEtOURBDwi0haWBK-2" value="hora, minutos" style="shape=parallelogram;perimeter=parallelogramPerimeter;whiteSpace=wrap;html=1;fixedSize=1;fillColor=#dae8fc;strokeColor=#6c8ebf;" vertex="1" parent="1">
          <mxGeometry x="340" y="140" width="120" height="60" as="geometry" />
        </mxCell>
        <mxCell id="cEgsvEtOURBDwi0haWBK-7" value="" style="edgeStyle=orthogonalEdgeStyle;rounded=0;orthogonalLoop=1;jettySize=auto;html=1;" edge="1" parent="1" source="cEgsvEtOURBDwi0haWBK-4" target="cEgsvEtOURBDwi0haWBK-6">
          <mxGeometry relative="1" as="geometry" />
        </mxCell>
        <mxCell id="cEgsvEtOURBDwi0haWBK-4" value="min_dec =&amp;nbsp;minutos / 60" style="whiteSpace=wrap;html=1;fillColor=#e1d5e7;strokeColor=#9673a6;" vertex="1" parent="1">
          <mxGeometry x="340" y="230" width="120" height="60" as="geometry" />
        </mxCell>
        <mxCell id="cEgsvEtOURBDwi0haWBK-9" value="" style="edgeStyle=orthogonalEdgeStyle;rounded=0;orthogonalLoop=1;jettySize=auto;html=1;" edge="1" parent="1" source="cEgsvEtOURBDwi0haWBK-6" target="cEgsvEtOURBDwi0haWBK-8">
          <mxGeometry relative="1" as="geometry" />
        </mxCell>
        <mxCell id="cEgsvEtOURBDwi0haWBK-6" value="hr_dec = hora + min_dec" style="whiteSpace=wrap;html=1;fillColor=#e1d5e7;strokeColor=#9673a6;" vertex="1" parent="1">
          <mxGeometry x="325" y="320" width="150" height="60" as="geometry" />
        </mxCell>
        <mxCell id="cEgsvEtOURBDwi0haWBK-11" value="" style="edgeStyle=orthogonalEdgeStyle;rounded=0;orthogonalLoop=1;jettySize=auto;html=1;" edge="1" parent="1" source="cEgsvEtOURBDwi0haWBK-8" target="cEgsvEtOURBDwi0haWBK-10">
          <mxGeometry relative="1" as="geometry" />
        </mxCell>
        <mxCell id="cEgsvEtOURBDwi0haWBK-8" value="hr_dec, min_dec" style="shape=document;whiteSpace=wrap;html=1;boundedLbl=1;fillColor=#d5e8d4;strokeColor=#82b366;" vertex="1" parent="1">
          <mxGeometry x="340" y="450" width="120" height="80" as="geometry" />
        </mxCell>
        <mxCell id="cEgsvEtOURBDwi0haWBK-10" value="&lt;font style=&quot;font-size: 18px;&quot;&gt;fim&lt;/font&gt;" style="ellipse;whiteSpace=wrap;html=1;fillColor=#fff2cc;strokeColor=#d6b656;" vertex="1" parent="1">
          <mxGeometry x="360" y="560" width="80" height="80" as="geometry" />
        </mxCell>
      </root>
    </mxGraphModel>
  </diagram>
</mxfile>
